<svg width="98" height="16" viewBox="0 0 98 16" fill="none" xmlns="http://www.w3.org/2000/svg">
<g clip-path="url(#clip0_1808_24)">
<path d="M0 0.538239H2.34988L6.17015 6.47504L9.99043 0.538239H12.3403V13.0943H10.1347V4.09003L6.17015 10.0105H6.09864L2.17047 4.12641V13.0956H0V0.538239Z" fill="#1D1D1D"/>
<path d="M13.2599 10.3681V10.3317C13.2599 9.34559 13.6188 8.57527 14.3552 8.03579C15.0365 7.53394 15.9686 7.28302 17.1705 7.28302C18.035 7.27822 18.8948 7.4112 19.7174 7.67697V7.44361C19.7174 6.06354 18.9282 5.38104 17.3675 5.38104C16.4364 5.39737 15.5178 5.59866 14.6651 5.97321L14.0905 4.26945C15.2105 3.75738 16.4283 3.49415 17.6598 3.49787C19.0775 3.49787 20.1176 3.85669 20.7964 4.5555C21.4789 5.21919 21.8189 6.20657 21.8189 7.47999V13.0944H19.6998V11.91C18.9282 12.8259 17.9057 13.2901 16.6148 13.2901C15.6826 13.2901 14.8922 13.0392 14.2649 12.5373C13.6012 12.0003 13.2599 11.2827 13.2599 10.3681ZM19.7538 9.68559V9.04072C19.0659 8.7822 18.3357 8.65455 17.6009 8.66434C16.1129 8.66434 15.3765 9.185 15.3765 10.2439V10.279C15.371 10.4864 15.4174 10.6918 15.5114 10.8767C15.6054 11.0616 15.744 11.2201 15.9147 11.3379C16.2987 11.6026 16.7586 11.7348 17.2245 11.7143C17.9597 11.7143 18.5519 11.5349 19.0361 11.1585C19.2647 10.9881 19.4491 10.7655 19.5739 10.5092C19.6988 10.253 19.7604 9.97056 19.7538 9.68559Z" fill="#1D1D1D"/>
<path d="M22.9455 3.62334H25.116V5.07617C25.8875 3.98215 26.8724 3.42636 28.0756 3.42636C29.1345 3.42636 29.9575 3.7488 30.5697 4.41248C31.182 5.07617 31.448 5.93683 31.448 7.04716V13.0919H29.2775V7.71335C29.2775 6.17019 28.5962 5.3986 27.2513 5.3986C26.9645 5.38965 26.6791 5.44085 26.4133 5.54889C26.1475 5.65693 25.9073 5.81942 25.7081 6.02591C25.3134 6.43909 25.116 7.01286 25.116 7.74723V13.0931H22.9455V3.62334Z" fill="#1D1D1D"/>
<path d="M33.8945 13.2374C34.9885 13.9011 36.1013 14.2411 37.2668 14.2411C39.2554 14.2423 40.2591 13.2725 40.2591 11.3366V10.6014C39.362 11.767 38.2517 12.3403 36.9218 12.3403C36.3733 12.3514 35.828 12.2542 35.3171 12.0542C34.8062 11.8542 34.3398 11.5554 33.9446 11.1748C33.0664 10.3317 32.6173 9.25525 32.6173 7.91283V7.8777C32.6173 6.53276 33.0664 5.43874 33.9446 4.59565C34.7447 3.83011 35.8146 3.41126 36.9218 3.43011C38.2316 3.43011 39.3445 3.96834 40.2415 5.04354V3.62333H42.412V11.1572C42.412 12.7355 42.0168 13.9174 41.2101 14.7266C40.367 15.5697 39.0572 16 37.3208 16C35.7425 16 34.3248 15.6236 33.0877 14.8709L33.8945 13.2374ZM40.2804 7.89275V7.85637C40.2892 7.50134 40.2198 7.14871 40.0772 6.82349C39.9345 6.49827 39.7221 6.20841 39.4549 5.97446C38.9197 5.49213 38.2191 5.23466 37.4989 5.25557C36.7274 5.25557 36.1001 5.48893 35.597 5.9732C35.3386 6.21232 35.1345 6.504 34.9984 6.82863C34.8623 7.15325 34.7973 7.50327 34.8078 7.85511V7.8915C34.7975 8.24332 34.8625 8.59329 34.9986 8.91789C35.1347 9.24249 35.3388 9.53419 35.597 9.77341C36.1113 10.2548 36.7948 10.5136 37.4989 10.4936C38.2185 10.5145 38.9185 10.2575 39.4536 9.77592C39.7212 9.54195 39.934 9.25194 40.0769 8.92648C40.2198 8.60102 40.2893 8.24809 40.2804 7.89275Z" fill="#1D1D1D"/>
<path d="M43.7456 10.3681V10.3317C43.7456 9.3456 44.1044 8.57527 44.8396 8.03579C45.5209 7.53395 46.4543 7.28303 47.6562 7.28303C48.5207 7.27852 49.3804 7.41149 50.2031 7.67697V7.44362C50.2031 6.06355 49.4139 5.38104 47.8532 5.38104C46.92 5.39694 45.9992 5.59824 45.1445 5.97322L44.5712 4.26946C45.6912 3.75723 46.9089 3.49399 48.1405 3.49788C49.557 3.49788 50.5983 3.85669 51.277 4.55551C51.9583 5.2192 52.2995 6.20657 52.2995 7.48V13.0944H50.1855V11.91C49.4139 12.8259 48.3914 13.2901 47.1004 13.2901C46.167 13.2901 45.3779 13.0392 44.7506 12.5373C44.0869 12.0003 43.7456 11.2827 43.7456 10.3681ZM50.2395 9.6856V9.04073C49.5516 8.78221 48.8214 8.65455 48.0866 8.66435C46.5973 8.66435 45.8621 9.18501 45.8621 10.2439V10.279C45.8567 10.4864 45.9031 10.6918 45.9971 10.8767C46.0911 11.0616 46.2297 11.2201 46.4004 11.3379C46.7843 11.6026 47.2442 11.7348 47.7102 11.7143C48.4454 11.7143 49.0376 11.5349 49.5218 11.1585C49.7503 10.9881 49.9347 10.7655 50.0596 10.5092C50.1844 10.253 50.2461 9.97057 50.2395 9.6856Z" fill="#1D1D1D"/>
<path d="M54.0597 3.49786H56.2666V5.75615H72.8274V0.538239H75.0343V13.0943H72.8262V7.80241H56.2653V13.0943H54.0597V3.49786Z" fill="#1D1D1D"/>
<path d="M76.5461 9.65045V3.62834H78.7165V9.00684C78.7165 10.5312 79.3978 11.3028 80.744 11.3028C81.3713 11.3028 81.8919 11.1058 82.2859 10.693C82.6798 10.2803 82.8781 9.70691 82.8781 8.97171V3.62332H85.0661V13.0943H82.8781V11.6239C82.1253 12.7355 81.1388 13.2913 79.9184 13.2913C78.8596 13.2913 78.0365 12.9689 77.4243 12.3052C76.8334 11.6415 76.5461 10.7633 76.5461 9.65045Z" fill="#1D1D1D"/>
<path d="M89.6253 13.0943H87.4549V0H89.6253V5.2016C90.4684 4.01725 91.5449 3.42549 92.8547 3.42633C93.4201 3.42035 93.9808 3.53025 94.5021 3.74927C95.0234 3.96828 95.4943 4.29176 95.8858 4.69976C96.8004 5.61437 97.2496 6.83259 97.2496 8.33812V8.37952C97.2496 9.86748 96.8004 11.0882 95.8858 12.0179C95.4967 12.429 95.0262 12.7545 94.5043 12.9737C93.9825 13.193 93.4207 13.3011 92.8547 13.2913C91.5449 13.2913 90.4684 12.7355 89.6253 11.6239V13.0943ZM95.0427 8.37952V8.34313C95.0427 7.44651 94.7738 6.71131 94.236 6.13754C93.9971 5.87119 93.7034 5.65955 93.3752 5.51708C93.0469 5.3746 92.6918 5.30465 92.334 5.312C91.9702 5.30981 91.61 5.38368 91.2764 5.52887C90.9428 5.67406 90.6432 5.88736 90.3969 6.1551C89.8411 6.72846 89.5714 7.46491 89.5714 8.34313V8.37952C89.5714 9.25774 89.8411 9.99294 90.3969 10.5676C90.6432 10.8353 90.9428 11.0486 91.2764 11.1938C91.61 11.339 91.9702 11.4128 92.334 11.4106C92.6946 11.4199 93.053 11.3509 93.3843 11.2084C93.7157 11.0658 94.0123 10.8532 94.2536 10.5851C94.7742 10.0268 95.0427 9.29162 95.0427 8.37952Z" fill="#1D1D1D"/>
</g>
<defs>
<clipPath id="clip0_1808_24">
<rect width="97.2496" height="16" fill="rgba(255,255,255,0)"/>
</clipPath>
</defs>
</svg>
